<svg width="424" height="346" viewBox="0 0 424 346" fill="none" xmlns="http://www.w3.org/2000/svg">
<g clip-path="url(#clip0)">
<path opacity="0.48" d="M9.95401 12.8133H376.979C382.126 12.8133 386.298 16.9842 386.298 22.1292V250.447C386.298 255.592 382.126 259.763 376.979 259.763H9.95401C4.80737 259.763 0.635223 255.592 0.635223 250.447V22.1292C0.635223 16.9842 4.80737 12.8133 9.95401 12.8133Z" fill="#242329"/>
<path opacity="0.18" d="M8.26712 277.791C8.54825 285.879 10.4016 294.112 14.9309 300.815C20.6367 309.257 29.9034 314.482 38.8786 319.395L64.3257 333.395C75.477 339.536 87.2322 345.823 99.9454 346C108.941 346.135 117.646 343.169 126.298 340.681C166.708 329.023 209.272 327.389 251.045 330.335C272.442 331.844 293.735 334.498 314.934 337.694C331.895 340.213 352.25 348.592 367.546 338.672C384.205 327.847 394.43 310.319 403.842 293.3C412.037 278.53 420.345 263.396 423.052 246.731C427.217 220.98 417.243 194.531 401.635 173.609C396.941 167.361 391.816 161.448 386.298 155.914V250.457C386.298 252.933 385.318 255.308 383.572 257.063C381.826 258.818 379.455 259.812 376.979 259.825H9.96429C8.6579 265.721 8.08783 271.755 8.26712 277.791Z" fill="#242329"/>
<path opacity="0.18" d="M145.394 12.8237H243.528C239.834 10.0162 235.822 7.65438 231.575 5.78733C223.818 2.40446 215.363 0.895179 206.929 0.291467C185.71 -1.23863 164.427 3.44534 145.394 12.8237Z" fill="#242329"/>
<path d="M235.188 228.682C234.231 229.949 233.082 231.059 231.783 231.971C229.851 233.013 227.724 233.644 225.536 233.824L192.3 238.831C191.97 238.853 191.651 238.961 191.374 239.143C191.189 239.343 191.05 239.58 190.966 239.839C190.881 240.098 190.853 240.371 190.884 240.642C190.73 246.862 191.57 253.068 193.373 259.024C193.467 259.511 193.703 259.96 194.05 260.314C194.498 260.618 195.028 260.778 195.57 260.772C206.752 261.72 217.987 261.418 229.201 261.116C231.086 261.143 232.968 260.936 234.802 260.502C237.926 259.628 240.477 257.494 242.83 255.297C247.88 250.603 268.319 231.732 269.558 229.171C271.201 225.503 272.525 221.7 273.514 217.805C274.556 214.058 266.944 213.589 267.101 209.696C267.21 207.005 266.887 204.312 266.143 201.723C265.589 199.414 264.44 197.29 262.811 195.561C261.665 194.52 263.436 187.463 261.853 187.38C260.02 193.625 251.732 206.116 248.13 211.466C244.126 217.431 239.805 223.178 235.188 228.682Z" fill="#242329"/>
<path d="M235.188 228.682C234.231 229.949 233.082 231.059 231.783 231.971C229.851 233.013 227.724 233.644 225.536 233.824L192.3 238.831C191.97 238.853 191.651 238.961 191.374 239.143C191.189 239.343 191.05 239.58 190.966 239.839C190.881 240.098 190.853 240.371 190.884 240.642C190.73 246.862 191.57 253.068 193.373 259.024C193.467 259.511 193.703 259.96 194.05 260.314C194.498 260.618 195.028 260.778 195.57 260.772C206.752 261.72 217.987 261.418 229.201 261.116C231.086 261.143 232.968 260.936 234.802 260.502C237.926 259.628 240.477 257.494 242.83 255.297C247.88 250.603 268.319 231.732 269.558 229.171C271.201 225.503 272.525 221.7 273.514 217.805C274.556 214.058 266.944 213.589 267.101 209.696C267.21 207.005 266.887 204.312 266.143 201.723C265.589 199.414 264.44 197.29 262.811 195.561C261.665 194.52 263.436 187.463 261.853 187.38C260.02 193.625 251.732 206.116 248.13 211.466C244.126 217.431 239.805 223.178 235.188 228.682Z" fill="url(#paint0_linear)"/>
<path d="M319.286 175.951C321.524 177.946 323.612 180.103 325.533 182.404C330.135 188.056 333.196 194.78 336.049 201.484C343.64 219.325 350.251 238.404 348.283 257.691C348.246 258.852 347.932 259.987 347.367 261.001C346.471 262.15 345.212 262.961 343.796 263.302C340.141 264.468 336.237 264.52 332.343 264.551C317.339 264.686 302.314 264.822 287.321 264.093C284.999 263.978 282.542 263.801 280.615 262.49C279.208 261.413 278.086 260.009 277.346 258.399C273.317 250.822 272.14 242.057 269.016 234.084C264.852 223.675 253.398 214.214 255.814 203.243C266.143 156.663 314.559 171.652 319.286 175.951Z" fill="#242329"/>
<path d="M319.286 175.951C321.524 177.946 323.612 180.103 325.533 182.404C330.135 188.056 333.196 194.78 336.049 201.484C343.64 219.325 350.251 238.404 348.283 257.691C348.246 258.852 347.932 259.987 347.367 261.001C346.471 262.15 345.212 262.961 343.796 263.302C340.141 264.468 336.237 264.52 332.343 264.551C317.339 264.686 302.314 264.822 287.321 264.093C284.999 263.978 282.542 263.801 280.615 262.49C279.208 261.413 278.086 260.009 277.346 258.399C273.317 250.822 272.14 242.057 269.016 234.084C264.852 223.675 253.398 214.214 255.814 203.243C266.143 156.663 314.559 171.652 319.286 175.951Z" fill="url(#paint1_linear)"/>
<path d="M251.483 137.365C253.242 145.911 255.085 154.686 259.812 162.045C261.536 165.016 264.028 167.469 267.028 169.144C270.079 170.674 273.952 170.882 276.805 169.008C278.231 168.082 279.793 166.625 281.344 167.312C282.469 167.822 282.833 169.216 282.989 170.434C283.38 173.426 283.338 176.458 282.865 179.438C282.671 180.277 282.622 181.143 282.719 181.998C282.92 182.79 283.347 183.507 283.948 184.061C284.549 184.615 285.297 184.983 286.103 185.121C287.713 185.356 289.358 185.098 290.819 184.382C293.093 183.365 295.083 181.807 296.615 179.844C298.147 177.881 299.174 175.572 299.607 173.12C299.826 171.463 299.93 169.794 299.92 168.123C300.117 160.712 301.294 153.333 301.054 145.932C300.815 138.531 298.972 130.829 293.943 125.364C291.039 122.388 287.589 119.999 283.781 118.328C278.106 115.621 271.776 113.717 265.57 114.705C263.101 115.095 260.745 116.016 258.665 117.403C256.586 118.79 254.832 120.611 253.523 122.741C250.275 127.727 250.264 131.443 251.483 137.365Z" fill="#FFDAD2"/>
<path d="M235.979 118.536C235.556 115.062 236.201 111.543 237.829 108.445C239.456 105.347 241.989 102.818 245.09 101.195C247.849 99.8207 250.92 99.2378 253.898 98.4467C260.874 96.5732 267.569 93.4713 274.722 92.8052C281.875 92.139 290.101 94.6475 293.287 101.132C293.87 102.319 294.443 103.755 295.723 104.068C296.423 104.143 297.131 104.079 297.806 103.88C302.585 103.037 306.885 107.117 309.04 111.458C312.518 118.484 312.695 126.675 311.935 134.472C311.237 141.685 309.394 149.481 303.605 153.874C303.033 154.311 302.189 154.706 301.637 154.238C301.385 153.974 301.227 153.633 301.19 153.27C300.607 150.535 300.39 147.735 300.544 144.943C300.659 142.861 300.992 140.655 300.451 138.604C299.909 136.553 298.17 134.607 296.046 134.669C294.078 134.669 292.496 136.501 292.006 138.417C291.658 140.367 291.732 142.369 292.225 144.287C291.913 145.068 290.819 144.131 290.632 143.319C289.195 136.782 288.872 129.465 284.333 124.583C283.409 125.539 282.737 126.708 282.375 127.987C281.697 127.284 280.834 126.787 279.885 126.551C278.937 126.315 277.942 126.351 277.013 126.655C275.696 127.228 274.485 128.02 273.431 128.997C262.374 137.626 238.301 135.065 235.979 118.536Z" fill="#3F3D56"/>
<path d="M316.1 186.61C319.598 189.149 321.306 193.615 321.41 197.924C321.514 202.233 316.954 229.577 312.653 237.342C309.322 243.379 302.377 259.138 291.829 263.489C288.706 264.78 242.528 264.239 221.1 261.917C221.236 256.848 221.485 251.779 221.819 246.71C221.787 246.041 221.99 245.383 222.391 244.847C222.933 244.285 223.703 240.611 224.474 240.611C236.968 240.663 249.567 244.483 262.061 244.774C263.876 244.891 265.698 244.783 267.486 244.451C268.949 244.086 270.352 243.511 271.651 242.744C281.292 237.29 286.623 226.579 290.392 216.16C293.277 208.125 295.598 199.808 299.763 192.303C301.242 189.628 302.564 187.026 305.48 185.85C308.905 184.465 312.924 184.309 316.1 186.61Z" fill="#242329"/>
<path d="M316.1 186.61C319.598 189.149 321.306 193.615 321.41 197.924C321.514 202.233 316.954 229.577 312.653 237.342C309.322 243.379 302.377 259.138 291.829 263.489C288.706 264.78 242.528 264.239 221.1 261.917C221.236 256.848 221.485 251.779 221.819 246.71C221.787 246.041 221.99 245.383 222.391 244.847C222.933 244.285 223.703 240.611 224.474 240.611C236.968 240.663 249.567 244.483 262.061 244.774C263.876 244.891 265.698 244.783 267.486 244.451C268.949 244.086 270.352 243.511 271.651 242.744C281.292 237.29 286.623 226.579 290.392 216.16C293.277 208.125 295.598 199.808 299.763 192.303C301.242 189.628 302.564 187.026 305.48 185.85C308.905 184.465 312.924 184.309 316.1 186.61Z" fill="url(#paint2_linear)"/>
<path d="M222.933 239.632C216.446 239.018 209.241 240.465 205.128 245.513C204.695 245.973 204.412 246.554 204.316 247.179C204.32 247.741 204.494 248.289 204.816 248.75C207.242 252.778 212.51 253.736 216.935 255.329C219.237 256.153 221.435 257.243 223.485 258.576C224.638 259.491 225.972 260.151 227.399 260.512C230.523 260.981 233.116 258.191 234.532 255.401C236.156 252.279 238.697 245.867 235.573 242.911C233.022 240.569 226.14 239.924 222.933 239.632Z" fill="#FFDAD2"/>
<path d="M169.217 238.029C168.062 238.686 167.069 239.593 166.312 240.683C165.942 241.235 165.722 241.874 165.675 242.537C165.627 243.199 165.754 243.863 166.041 244.462C166.532 245.199 167.202 245.801 167.988 246.211C173.746 249.635 180.805 250.249 186.636 253.497C187.832 254.366 189.204 254.963 190.655 255.245C191.508 255.264 192.354 255.086 193.127 254.725C193.9 254.364 194.579 253.83 195.112 253.164C196.173 251.838 196.988 250.333 197.517 248.719C204.337 230.816 179.025 231.784 169.217 238.029Z" fill="#FFDAD2"/>
<path d="M334.217 230.035H307.239V252.185C307.239 254.256 308.062 256.241 309.526 257.705C310.991 259.169 312.977 259.992 315.048 259.992H326.408C328.479 259.992 330.465 259.169 331.93 257.705C333.394 256.241 334.217 254.256 334.217 252.185V230.035Z" fill="white"/>
<path d="M309.061 235.406H300.888C299.162 235.406 297.507 236.092 296.286 237.312C295.066 238.532 294.38 240.186 294.38 241.912V244.608C294.38 246.333 295.066 247.988 296.286 249.208C297.507 250.428 299.162 251.113 300.888 251.113H309.061V235.406Z" stroke="white" stroke-width="3.3" stroke-miterlimit="10"/>
<path d="M5.78906 259.513H371.232C374.429 259.513 377.021 262.102 377.021 265.295C377.021 268.488 374.429 271.077 371.232 271.077H5.78906C2.59183 271.077 -3.05176e-05 268.488 -3.05176e-05 265.295C-3.05176e-05 262.102 2.59183 259.513 5.78906 259.513Z" fill="#242329"/>
<path opacity="0.18" d="M0.645599 22.1396V67.7303H386.298V22.1396C386.298 19.664 385.318 17.2891 383.572 15.5338C381.826 13.7784 379.455 12.7854 376.979 12.7716H9.96439C7.48813 12.7854 5.11795 13.7784 3.37183 15.5338C1.62567 17.2891 0.645569 19.664 0.645599 22.1396Z" fill="#242329"/>
<path d="M219.84 259.315H86.1077C82.3585 259.315 79.3191 256.277 79.3191 252.529C79.3191 248.781 82.3585 245.742 86.1077 245.742L219.84 245.742C223.59 245.742 226.629 248.781 226.629 252.529C226.629 256.277 223.59 259.315 219.84 259.315Z" fill="#242329"/>
<path d="M219.84 259.315H86.1077C82.3585 259.315 79.3191 256.277 79.3191 252.529C79.3191 248.781 82.3585 245.742 86.1077 245.742L219.84 245.742C223.59 245.742 226.629 248.781 226.629 252.529C226.629 256.277 223.59 259.315 219.84 259.315Z" fill="url(#paint3_linear)"/>
<path d="M173.465 259.336H70.8333L43.7619 190.711C43.4026 189.796 43.2721 188.808 43.3817 187.831C43.4912 186.855 43.8375 185.92 44.3905 185.107C44.9435 184.295 45.6865 183.63 46.5549 183.17C47.4234 182.71 48.3911 182.468 49.374 182.467H129.911C133.807 182.474 137.611 183.651 140.83 185.844C144.049 188.038 146.535 191.148 147.966 194.77L173.465 259.336Z" fill="#242329"/>
<path d="M168.249 259.409H70.7708L45.0635 194.218C44.7204 193.35 44.595 192.411 44.6984 191.483C44.8017 190.555 45.1305 189.666 45.6562 188.894C46.1819 188.122 46.8885 187.49 47.7144 187.054C48.5403 186.618 49.4603 186.39 50.3944 186.391H126.881C130.587 186.389 134.207 187.502 137.271 189.585C140.335 191.668 142.701 194.624 144.061 198.07L168.249 259.409Z" fill="#242329"/>
<path d="M168.249 259.409H70.7708L45.0635 194.218C44.7204 193.35 44.595 192.411 44.6984 191.483C44.8017 190.555 45.1305 189.666 45.6562 188.894C46.1819 188.122 46.8885 187.49 47.7144 187.054C48.5403 186.618 49.4603 186.39 50.3944 186.391H126.881C130.587 186.389 134.207 187.502 137.271 189.585C140.335 191.668 142.701 194.624 144.061 198.07L168.249 259.409Z" fill="url(#paint4_linear)"/>
<path opacity="0.51" d="M57.8911 160.931H202.202V169.05H57.8911V160.931Z" fill="white"/>
<path d="M99.6122 147.035H202.202V155.154H99.6122V147.035Z" fill="white"/>
<path d="M16.9091 147.035H85.5872V155.154H16.9091V147.035Z" fill="white"/>
<path d="M17.1487 95.6364H122.737V102.85H17.1487V95.6364Z" fill="white"/>
<path opacity="0.51" d="M31.8922 108.45H144.853V115.663H31.8922V108.45Z" fill="white"/>
<path d="M130.796 95.6364H200.245V102.85H130.796V95.6364Z" fill="white"/>
<path d="M17.1486 120.878H169.779V128.091H17.1486V120.878Z" fill="white"/>
<path opacity="0.51" d="M177.838 120.878H200.245V128.091H177.838V120.878Z" fill="white"/>
<path opacity="0.51" d="M17.1487 133.691H117.896V140.904H17.1487V133.691Z" fill="white"/>
<path d="M130.796 133.691H200.245V140.904H130.796V133.691Z" fill="white"/>
<path d="M155.587 108.148H200.245V115.361H155.587V108.148Z" fill="white"/>
<path d="M55.767 71.3525H161.356V78.5659H55.767V71.3525Z" fill="white"/>
<path opacity="0.51" d="M70.5105 84.1658H183.471V91.3791H70.5105V84.1658Z" fill="white"/>
<path d="M169.404 71.3525H238.853V78.5659H169.404V71.3525Z" fill="white"/>
<path d="M56.7041 56.4159H162.293V63.6292H56.7041V56.4159Z" fill="white"/>
<path d="M170.341 42.8636H239.79V50.0769H170.341V42.8636Z" fill="white"/>
<path d="M170.341 30.4979H239.79V37.7112H170.341V30.4979Z" fill="white"/>
<path d="M194.195 83.864H238.853V91.0773H194.195V83.864Z" fill="white"/>
</g>
<defs>
<linearGradient id="paint0_linear" x1="268.288" y1="216.348" x2="215.971" y2="236.291" gradientUnits="userSpaceOnUse">
<stop offset="0.01"/>
<stop offset="0.12" stop-opacity="0.75"/>
<stop offset="1" stop-opacity="0"/>
</linearGradient>
<linearGradient id="paint1_linear" x1="-11660.5" y1="26240.8" x2="-10201.5" y2="17561.8" gradientUnits="userSpaceOnUse">
<stop offset="0.01"/>
<stop offset="0.12" stop-opacity="0.75"/>
<stop offset="1" stop-opacity="0"/>
</linearGradient>
<linearGradient id="paint2_linear" x1="-13156.5" y1="21679.9" x2="-14836.3" y2="16899.9" gradientUnits="userSpaceOnUse">
<stop offset="0.01"/>
<stop offset="0.12" stop-opacity="0.75"/>
<stop offset="1" stop-opacity="0"/>
</linearGradient>
<linearGradient id="paint3_linear" x1="-38798.7" y1="3884.16" x2="-38799.4" y2="3514.53" gradientUnits="userSpaceOnUse">
<stop offset="0.01"/>
<stop offset="0.12" stop-opacity="0.75"/>
<stop offset="1" stop-opacity="0"/>
</linearGradient>
<linearGradient id="paint4_linear" x1="-37857.7" y1="20987" x2="-38032.2" y2="13510.4" gradientUnits="userSpaceOnUse">
<stop offset="0.01"/>
<stop offset="0.12" stop-opacity="0.75"/>
<stop offset="1" stop-opacity="0"/>
</linearGradient>
<clipPath id="clip0">
<rect width="424" height="346" fill="white" transform="matrix(-1 0 0 1 424 0)"/>
</clipPath>
</defs>
</svg>
