<svg width="210" height="146" viewBox="0 0 210 146" fill="none" xmlns="http://www.w3.org/2000/svg">
<path d="M202.48 145.677H6.56899C4.82679 145.677 3.15594 144.985 1.92401 143.753C0.692085 142.521 0 140.851 0 139.108C71.0177 130.855 140.701 130.855 209.049 139.108C209.049 139.971 208.879 140.825 208.549 141.622C208.219 142.419 207.735 143.143 207.125 143.753C206.515 144.363 205.791 144.847 204.994 145.177C204.197 145.507 203.343 145.677 202.48 145.677Z" fill="#2F2E41"/>
<path d="M209.049 139.495L0 139.108L24.228 98.3419L24.344 98.1487V8.30398C24.3439 7.21346 24.5586 6.1336 24.9759 5.12608C25.3932 4.11855 26.0048 3.20309 26.7759 2.43197C27.5471 1.66086 28.4625 1.0492 29.47 0.631919C30.4776 0.214637 31.5574 -9.10483e-05 32.6479 2.89608e-08H175.242C176.332 -9.10483e-05 177.412 0.214637 178.42 0.631919C179.427 1.0492 180.343 1.66086 181.114 2.43197C181.885 3.20309 182.496 4.11855 182.914 5.12608C183.331 6.1336 183.546 7.21346 183.546 8.30398V98.7669L209.049 139.495Z" fill="#3F3D56"/>
<path d="M32.4586 5.79626C31.7414 5.79707 31.0539 6.0823 30.5468 6.58939C30.0397 7.09648 29.7545 7.78401 29.7537 8.50115V90.4205C29.7545 91.1376 30.0397 91.8251 30.5468 92.3322C31.0539 92.8393 31.7414 93.1245 32.4586 93.1254H176.59C177.307 93.1245 177.995 92.8392 178.502 92.3322C179.009 91.8251 179.294 91.1376 179.295 90.4205V8.50115C179.294 7.78402 179.009 7.09651 178.502 6.58942C177.995 6.08234 177.307 5.7971 176.59 5.79626H32.4586Z" fill="white"/>
<path d="M33.0628 103.945C32.8411 103.945 32.6243 104.009 32.4377 104.128C32.2511 104.248 32.1025 104.418 32.0095 104.62L24.5441 120.849C24.4629 121.025 24.4273 121.22 24.4408 121.414C24.4542 121.608 24.5162 121.795 24.6211 121.959C24.726 122.122 24.8703 122.257 25.0409 122.35C25.2114 122.444 25.4027 122.493 25.5971 122.493H182.591C182.788 122.493 182.983 122.442 183.155 122.346C183.328 122.25 183.473 122.111 183.577 121.943C183.681 121.775 183.74 121.583 183.749 121.385C183.758 121.188 183.716 120.992 183.627 120.815L175.513 104.586C175.417 104.393 175.269 104.23 175.086 104.117C174.903 104.004 174.692 103.944 174.476 103.945H33.0628Z" fill="#2F2E41"/>
<path d="M103.945 4.44377C104.905 4.44377 105.684 3.66526 105.684 2.70492C105.684 1.74458 104.905 0.966064 103.945 0.966064C102.985 0.966064 102.206 1.74458 102.206 2.70492C102.206 3.66526 102.985 4.44377 103.945 4.44377Z" fill="white"/>
<path d="M88.5137 125.584C88.2589 125.584 88.0112 125.668 87.809 125.823C87.6067 125.978 87.4611 126.196 87.3945 126.442L85.5219 133.397C85.4756 133.569 85.4694 133.749 85.504 133.924C85.5385 134.098 85.6127 134.262 85.721 134.404C85.8292 134.545 85.9685 134.659 86.128 134.738C86.2876 134.817 86.4632 134.858 86.6411 134.858H122.254C122.439 134.858 122.621 134.814 122.785 134.729C122.95 134.644 123.091 134.521 123.198 134.371C123.306 134.22 123.375 134.046 123.401 133.863C123.428 133.68 123.41 133.494 123.349 133.319L120.942 126.364C120.863 126.136 120.715 125.939 120.519 125.799C120.322 125.659 120.087 125.584 119.846 125.584H88.5137Z" fill="#2F2E41"/>
<path d="M183.546 96.7963V98.3417H24.228L24.3478 98.1488V96.7963H183.546Z" fill="#2F2E41"/>
<path d="M50.1648 22.8052C49.6008 22.8139 49.0632 23.046 48.67 23.4505C48.2768 23.855 48.0601 24.3989 48.0673 24.963V73.8711C48.0601 74.4352 48.2768 74.9791 48.67 75.3836C49.0632 75.7881 49.6008 76.0201 50.1648 76.0288H158.884C159.448 76.0201 159.986 75.788 160.379 75.3836C160.772 74.9791 160.989 74.4352 160.982 73.8711V24.963C160.989 24.3989 160.772 23.855 160.379 23.4505C159.986 23.046 159.448 22.8139 158.884 22.8052H50.1648Z" fill="#E6E6E6"/>
<path d="M112.622 76.1162H152.198C152.45 76.1162 152.696 76.0415 152.906 75.9015C153.115 75.7615 153.279 75.5625 153.375 75.3298C153.471 75.097 153.497 74.8408 153.448 74.5937C153.398 74.3466 153.277 74.1196 153.099 73.9414L127.77 48.612C127.531 48.3735 127.207 48.2395 126.869 48.2395C126.531 48.2395 126.207 48.3735 125.968 48.612L119.669 54.9108C119.421 55.159 119.127 55.3558 118.802 55.4902C118.478 55.6245 118.131 55.6936 117.78 55.6936C117.429 55.6936 117.081 55.6245 116.757 55.4902C116.433 55.3558 116.138 55.159 115.89 54.9108L96.1616 35.1822C95.9225 34.9437 95.5985 34.8097 95.2607 34.8097C94.9229 34.8097 94.5989 34.9437 94.3598 35.1822L55.7754 73.7666C55.5972 73.9448 55.4759 74.1718 55.4268 74.4189C55.3777 74.6661 55.4029 74.9222 55.4993 75.155C55.5958 75.3878 55.7591 75.5867 55.9686 75.7267C56.178 75.8667 56.4243 75.9414 56.6763 75.9414H112.672L112.622 76.1162Z" fill="#242329"/>
<path d="M65.5462 39.2355C68.2492 39.2355 70.4403 37.0443 70.4403 34.3414C70.4403 31.6384 68.2492 29.4473 65.5462 29.4473C62.8433 29.4473 60.6521 31.6384 60.6521 34.3414C60.6521 37.0443 62.8433 39.2355 65.5462 39.2355Z" fill="#242329"/>
<path d="M52.7739 40.5099C52.6812 40.5099 52.5923 40.473 52.5267 40.4075C52.4612 40.3419 52.4243 40.253 52.4243 40.1603V16.7384C52.4243 16.6457 52.4612 16.5568 52.5267 16.4913C52.5923 16.4257 52.6812 16.3889 52.7739 16.3889H79.6916C79.7376 16.3887 79.7831 16.3976 79.8257 16.4152C79.8682 16.4327 79.9069 16.4584 79.9395 16.4909C79.972 16.5233 79.9979 16.5619 80.0155 16.6044C80.0332 16.6469 80.0422 16.6924 80.0422 16.7384C80.0422 16.7844 80.0332 16.83 80.0155 16.8725C79.9979 16.915 79.972 16.9535 79.9395 16.986C79.9069 17.0185 79.8682 17.0442 79.8257 17.0617C79.7831 17.0792 79.7376 17.0882 79.6916 17.088H53.1235V40.1603C53.1235 40.253 53.0866 40.3419 53.0211 40.4075C52.9555 40.4731 52.8666 40.5099 52.7739 40.5099Z" fill="#3F3D56"/>
<path d="M156.25 40.8594C156.204 40.8594 156.158 40.8504 156.116 40.8328C156.073 40.8152 156.035 40.7895 156.002 40.757C155.97 40.7246 155.944 40.686 155.927 40.6436C155.909 40.6012 155.9 40.5557 155.9 40.5098V17.4375H129.332C129.239 17.4375 129.15 17.4007 129.085 17.3351C129.019 17.2696 128.982 17.1806 128.982 17.0879C128.982 16.9952 129.019 16.9063 129.085 16.8407C129.15 16.7752 129.239 16.7383 129.332 16.7383H156.25C156.296 16.7383 156.341 16.7474 156.383 16.7649C156.426 16.7825 156.464 16.8082 156.497 16.8407C156.529 16.8732 156.555 16.9117 156.573 16.9541C156.59 16.9965 156.599 17.042 156.599 17.0879V40.5098C156.599 40.5557 156.59 40.6012 156.573 40.6436C156.555 40.686 156.529 40.7246 156.497 40.757C156.464 40.7895 156.426 40.8152 156.383 40.8328C156.341 40.8504 156.296 40.8594 156.25 40.8594Z" fill="#3F3D56"/>
<path d="M79.6916 82.1099H52.7739C52.728 82.1099 52.6825 82.1008 52.6401 82.0833C52.5977 82.0657 52.5591 82.04 52.5267 82.0075C52.4942 81.975 52.4685 81.9365 52.4509 81.8941C52.4333 81.8516 52.4243 81.8062 52.4243 81.7603V58.3384C52.4242 58.2924 52.4331 58.2468 52.4506 58.2043C52.4681 58.1618 52.4938 58.1231 52.5263 58.0905C52.5588 58.0579 52.5974 58.0321 52.6399 58.0144C52.6824 57.9968 52.7279 57.9877 52.7739 57.9877C52.8199 57.9877 52.8654 57.9968 52.9079 58.0144C52.9504 58.0321 52.989 58.0579 53.0215 58.0905C53.054 58.1231 53.0797 58.1618 53.0972 58.2043C53.1147 58.2468 53.1236 58.2924 53.1235 58.3384V81.4107H79.6916C79.7376 81.4105 79.7831 81.4195 79.8257 81.437C79.8682 81.4545 79.9069 81.4802 79.9395 81.5127C79.972 81.5452 79.9979 81.5838 80.0155 81.6262C80.0332 81.6687 80.0422 81.7143 80.0422 81.7603C80.0422 81.8063 80.0332 81.8518 80.0155 81.8943C79.9979 81.9368 79.972 81.9754 79.9395 82.0079C79.9069 82.0403 79.8682 82.0661 79.8257 82.0836C79.7831 82.1011 79.7376 82.11 79.6916 82.1099Z" fill="#3F3D56"/>
<path d="M156.25 82.4595H129.332C129.239 82.4595 129.15 82.4226 129.085 82.3571C129.019 82.2915 128.982 82.2026 128.982 82.1099C128.982 82.0172 129.019 81.9283 129.085 81.8627C129.15 81.7971 129.239 81.7603 129.332 81.7603H155.9V58.688C155.9 58.5953 155.937 58.5064 156.002 58.4408C156.068 58.3753 156.157 58.3384 156.25 58.3384C156.342 58.3384 156.431 58.3753 156.497 58.4408C156.562 58.5064 156.599 58.5953 156.599 58.688V82.1099C156.599 82.1558 156.59 82.2013 156.573 82.2437C156.555 82.2861 156.529 82.3247 156.497 82.3571C156.464 82.3896 156.426 82.4154 156.383 82.4329C156.341 82.4505 156.296 82.4595 156.25 82.4595Z" fill="#3F3D56"/>
</svg>
