<svg width="45" height="45" viewBox="0 0 45 45" fill="none" xmlns="http://www.w3.org/2000/svg">
<rect width="45" height="45" fill="#333333"/>
<path d="M43.9785 28.166C42.7832 27.2142 40.6693 26.2292 37.6367 25.2109C34.6042 24.1927 32.125 23.2077 30.1992 22.2559C23.9349 19.179 20.8027 14.9512 20.8027 9.57227C20.8027 6.89388 21.5775 4.53646 23.127 2.5C23.8352 1.57226 24.6739 0.738922 25.6429 0H45V7.60604C44.7339 7.16393 44.4045 6.76791 44.0117 6.41797C42.8164 5.33333 41.1895 4.79102 39.1309 4.79102C37.0501 4.79102 35.401 5.25586 34.1836 6.18555C32.9883 7.0931 32.3906 8.25521 32.3906 9.67188C32.3906 10.9115 33.0547 12.0404 34.3828 13.0586C35.7109 14.0547 38.0462 15.0951 41.3887 16.1797C42.6819 16.5908 43.8857 17.0151 45 17.4527V29.2536V35.0723V45L33.0215 44.9388C31.5873 44.6012 30.2149 44.1457 28.9043 43.5723C25.7389 42.1556 23.3483 40.2298 21.7324 37.7949C20.1387 35.3379 19.3418 32.5156 19.3418 29.3281H31.0293C31.0293 31.918 31.6934 33.8327 33.0215 35.0723C34.3717 36.2897 36.5521 36.8984 39.5625 36.8984C41.4883 36.8984 43.0046 36.4889 44.1113 35.6699L45 35.0723V29.2536C44.7283 28.8485 44.3878 28.486 43.9785 28.166Z" fill="white"/>
<path d="M0 33V36V45H12V33H0Z" fill="#F0F2FB"/>
<rect y="36" width="9" height="9" fill="#4662DB"/>
</svg>
