<svg width="161" height="145" viewBox="0 0 161 145" fill="none" xmlns="http://www.w3.org/2000/svg">
<path d="M43.3534 99.1116H54.3728L81.5279 88.4857C81.5279 88.4857 100.812 80.6147 99.2376 95.5696C97.6634 110.525 94.9086 130.596 94.9086 130.596C94.9086 130.596 86.2505 126.66 81.5279 127.841C76.8052 129.021 79.9536 103.834 79.9536 103.834C79.9536 103.834 41.3857 122.331 37.8437 119.97C34.3017 117.608 33.5146 101.079 33.5146 101.079L43.3534 99.1116Z" fill="#2F2E41"/>
<path opacity="0.1" d="M43.3534 99.1116H54.3728L81.5279 88.4857C81.5279 88.4857 100.812 80.6147 99.2376 95.5696C97.6634 110.525 94.9086 130.596 94.9086 130.596C94.9086 130.596 86.2505 126.66 81.5279 127.841C76.8052 129.021 79.9536 103.834 79.9536 103.834C79.9536 103.834 41.3857 122.331 37.8437 119.97C34.3017 117.608 33.5146 101.079 33.5146 101.079L43.3534 99.1116Z" fill="black"/>
<path d="M60.7148 64.6027L74.0506 83.7631L105.141 109.737C105.141 109.737 133.87 116.428 129.935 121.15C125.999 125.873 101.993 116.428 101.993 116.428C101.993 116.428 66.1795 90.4535 64.9989 88.4857C63.8182 86.518 50.8311 68.0211 50.8311 68.0211L60.7148 64.6027Z" fill="#A0616A"/>
<path opacity="0.1" d="M60.7148 64.6027L74.0506 83.7631L105.141 109.737C105.141 109.737 133.87 116.428 129.935 121.15C125.999 125.873 101.993 116.428 101.993 116.428C101.993 116.428 66.1795 90.4535 64.9989 88.4857C63.8182 86.518 50.8311 68.0211 50.8311 68.0211L60.7148 64.6027Z" fill="black"/>
<path d="M52.7987 49.1306L61.4568 66.0532C61.4568 66.0532 59.4891 74.3178 56.3407 75.1049C53.1923 75.892 39.8115 64.8726 39.8115 64.8726L52.7987 49.1306Z" fill="#D0CDE1"/>
<path opacity="0.1" d="M52.7987 49.1306L61.4568 66.0532C61.4568 66.0532 59.4891 74.3178 56.3407 75.1049C53.1923 75.892 39.8115 64.8726 39.8115 64.8726L52.7987 49.1306Z" fill="black"/>
<path d="M158.424 90.3496L160.982 100.9C161.01 101.017 161.006 101.14 160.969 101.256L149.367 137.51C149.321 137.654 149.228 137.777 149.102 137.86C148.976 137.943 148.825 137.98 148.675 137.965C148.525 137.951 148.385 137.885 148.277 137.779C148.17 137.673 148.102 137.534 148.085 137.384L146.48 123.261C146.469 123.167 146.479 123.072 146.508 122.982L157.157 90.3008C157.202 90.1644 157.289 90.0463 157.407 89.9643C157.525 89.8823 157.666 89.8409 157.809 89.8464C157.952 89.852 158.09 89.9041 158.201 89.9949C158.312 90.0857 158.39 90.2103 158.424 90.3496Z" fill="#2F2E41"/>
<path d="M157.483 91.2406L159.844 100.292L149.612 133.351L147.251 123.118L157.483 91.2406Z" fill="#F2F2F2"/>
<path d="M105.928 140.434C106.322 141.615 146.858 140.041 147.251 139.647C147.594 139.154 147.884 138.627 148.117 138.073C148.487 137.286 148.825 136.499 148.825 136.499L147.251 123.756L107.109 122.331C107.109 122.331 106.105 133.13 105.901 138.073C105.85 139.321 105.85 140.198 105.928 140.434Z" fill="#2F2E41"/>
<path opacity="0.1" d="M142.135 125.48L142.922 136.499H125.212V125.48H142.135Z" fill="black"/>
<path opacity="0.1" d="M119.309 129.021L119.415 129L118.915 133.744H109.077V129.021H119.309Z" fill="black"/>
<path opacity="0.1" d="M105.928 140.434C106.322 141.615 146.858 140.041 147.251 139.647C147.594 139.154 147.884 138.627 148.117 138.073H105.901C105.85 139.321 105.85 140.198 105.928 140.434Z" fill="black"/>
<path d="M58.702 43.6208C68.4828 43.6208 76.4118 35.6919 76.4118 25.911C76.4118 16.1302 68.4828 8.20123 58.702 8.20123C48.9211 8.20123 40.9922 16.1302 40.9922 25.911C40.9922 35.6919 48.9211 43.6208 58.702 43.6208Z" fill="#A0616A"/>
<path d="M57.5215 41.6532C57.5215 41.6532 51.6182 51.8856 50.4375 57.3953C49.2569 62.905 32.7278 46.3759 32.7278 46.3759L30.5632 40.6694C30.5632 40.6694 46.1085 33.3887 44.9278 27.4854C43.7472 21.5821 57.5215 41.6532 57.5215 41.6532Z" fill="#A0616A"/>
<path d="M60.6697 72.35L76.8053 93.6018L115.373 122.331C115.373 122.331 143.315 128.234 137.019 132.563C130.722 136.892 112.618 128.628 112.618 128.628C112.618 128.628 73.6569 107.77 65.3923 99.1115C57.1278 90.4534 41.7793 75.892 41.7793 75.892L60.6697 72.35Z" fill="#A0616A"/>
<path d="M39.0245 105.408L43.7472 112.886L71.9322 104.019C78.1164 102.073 84.8977 102.789 90.3829 106.245C95.3023 109.344 98.4507 114.263 91.3668 121.544C77.199 136.105 67.7538 128.234 67.7538 128.234C67.7538 128.234 20.1341 150.667 12.2631 139.647C4.39207 128.628 3.99854 123.118 3.99854 123.118C3.99854 123.118 34.3019 104.228 39.0245 105.408Z" fill="#2F2E41"/>
<path d="M98.057 131.383C98.057 131.383 110.651 139.647 95.6957 143.583C80.7407 147.518 69.7213 142.009 69.7213 142.009C69.7213 142.009 56.7341 142.009 56.7341 135.318C56.7341 128.628 61.0632 127.841 61.0632 127.841L74.4439 129.808C74.4439 129.808 90.5795 125.479 98.057 131.383Z" fill="#D0CDE1"/>
<path d="M73.2301 21.4561C74.4355 21.9935 75.6308 22.6295 76.9413 22.7855C78.2517 22.9415 79.744 22.4839 80.3641 21.319C80.6991 20.6897 80.7374 19.9496 80.753 19.2369C80.8004 17.0759 80.6441 14.7396 79.2746 13.0672C78.4031 12.0028 77.1308 11.3318 76.2286 10.2933C75.5822 9.54924 75.1521 8.64738 74.6889 7.77741C72.9343 4.4821 70.3365 1.31508 66.7261 0.365075C65.2185 -0.0316237 63.637 -0.0122621 62.0782 0.00974298L52.9863 0.138009C51.5149 0.158767 50.0209 0.182887 48.6125 0.608746C45.686 1.49357 43.5553 3.95451 41.6038 6.30797C40.1438 8.0687 38.68 9.84764 37.5842 11.8554C36.0133 14.7854 35.2189 18.0688 35.2769 21.3929C35.2647 22.2454 35.3748 23.0952 35.6037 23.9165C35.8716 24.6697 36.2034 25.3987 36.5956 26.0953C38.3007 29.4443 39.3131 33.6274 37.3929 36.8578C40.7285 35.4953 44.0288 33.7087 46.2291 30.8555C47.2135 29.579 47.9854 28.0848 49.2972 27.1482C50.609 26.2115 52.7465 26.1302 53.5881 27.5049C53.8774 28.061 54.0264 28.6794 54.0221 29.3063C54.0835 30.3381 54.0819 31.4097 54.5194 32.3463C54.9569 33.2828 55.999 34.0385 56.994 33.7582C58.7074 33.2756 58.5434 30.6458 59.8631 29.4511C60.8654 28.5439 62.4117 28.7173 63.6994 28.3055C65.1996 27.8256 66.3253 26.5259 66.9667 25.0873C67.4543 23.9938 67.4472 21.1322 68.3698 20.5401C69.5267 19.7974 72.1577 20.9781 73.2301 21.4561Z" fill="#2F2E41"/>
<path d="M29.1573 38.8025C29.9541 38.59 30.7928 38.5921 31.5885 38.8087C34.1147 39.4869 39.778 41.2824 40.9923 44.0145C42.5665 47.5565 48.0762 53.0662 48.0762 53.0662C48.0762 53.0662 55.5537 60.5436 53.9795 65.6598C52.4052 70.776 46.502 76.6792 46.502 76.6792C46.502 76.6792 48.0762 101.079 40.2052 107.376C32.3341 113.673 29.1857 109.344 29.1857 115.247C29.1857 121.15 4.7856 139.647 0.0629883 128.234C0.0629883 128.234 2.4243 106.983 1.63719 99.5052C0.861442 92.1355 1.9971 46.1555 29.1573 38.8025Z" fill="#D0CDE1"/>
<path d="M41.7795 48.737C41.7795 48.737 65.7861 66.4468 61.457 73.9243C61.457 73.9243 46.8956 81.0082 43.7472 80.6146C40.5988 80.2211 28.3987 66.4468 25.2503 65.2662C22.1019 64.0855 20.5277 42.8338 41.7795 48.737Z" fill="#D0CDE1"/>
</svg>
