<svg width="220" height="147" viewBox="0 0 220 147" fill="none" xmlns="http://www.w3.org/2000/svg">
<path d="M195.977 0H0.307129V130.759H195.977V0Z" fill="#3F3D56"/>
<path d="M6.40106 5.92645C7.25196 5.92645 7.94176 5.20669 7.94176 4.31882C7.94176 3.43094 7.25196 2.71118 6.40106 2.71118C5.55015 2.71118 4.86035 3.43094 4.86035 4.31882C4.86035 5.20669 5.55015 5.92645 6.40106 5.92645Z" fill="#4662DB"/>
<path d="M12.2492 5.92645C13.1001 5.92645 13.7899 5.20669 13.7899 4.31882C13.7899 3.43094 13.1001 2.71118 12.2492 2.71118C11.3983 2.71118 10.7085 3.43094 10.7085 4.31882C10.7085 5.20669 11.3983 5.92645 12.2492 5.92645Z" fill="#4662DB"/>
<path d="M18.0971 5.92645C18.948 5.92645 19.6378 5.20669 19.6378 4.31882C19.6378 3.43094 18.948 2.71118 18.0971 2.71118C17.2462 2.71118 16.5564 3.43094 16.5564 4.31882C16.5564 5.20669 17.2462 5.92645 18.0971 5.92645Z" fill="#4662DB"/>
<path d="M151.796 53.6309H118.284V55.6382H151.796V53.6309Z" fill="#E6E6E6"/>
<path d="M170.034 60.9529H118.284V62.9603H170.034V60.9529Z" fill="#4662DB"/>
<path d="M160.459 67.8514H118.284V69.8587H160.459V67.8514Z" fill="#E6E6E6"/>
<path d="M142.905 74.7239H118.284V76.7312H142.905V74.7239Z" fill="#E6E6E6"/>
<path d="M155.444 81.5964H118.284V83.6037H155.444V81.5964Z" fill="#E6E6E6"/>
<path d="M107.113 52.9172H103.01V57.199H107.113V52.9172Z" fill="#E6E6E6"/>
<path d="M107.113 59.8156H103.01V64.0974H107.113V59.8156Z" fill="#4662DB"/>
<path d="M107.113 66.7142H103.01V70.9961H107.113V66.7142Z" fill="#E6E6E6"/>
<path d="M107.113 73.6127H103.01V77.8945H107.113V73.6127Z" fill="#E6E6E6"/>
<path d="M107.113 80.5111H103.01V84.7929H107.113V80.5111Z" fill="#E6E6E6"/>
<path d="M156.707 80.408H147.445C146.813 76.5954 146.813 72.698 147.445 68.8855H156.707C155.663 72.6492 155.663 76.6443 156.707 80.408Z" fill="#FF6584"/>
<path d="M51.4948 89.8725C65.2369 89.8725 76.3771 78.2484 76.3771 63.9093C76.3771 49.5702 65.2369 37.9461 51.4948 37.9461C37.7527 37.9461 26.6125 49.5702 26.6125 63.9093C26.6125 78.2484 37.7527 89.8725 51.4948 89.8725Z" fill="#4662DB"/>
<path d="M52.8853 39.4111H50.1042V36.5092H52.8853V39.4111ZM50.6605 38.8307H52.3291V37.0896H50.6605V38.8307Z" fill="white"/>
<path d="M67.1345 37.6702H52.3948V38.2505H67.1345V37.6702Z" fill="white"/>
<path d="M67.1344 38.5646C67.4543 38.5646 67.7136 38.294 67.7136 37.9602C67.7136 37.6264 67.4543 37.3558 67.1344 37.3558C66.8145 37.3558 66.5552 37.6264 66.5552 37.9602C66.5552 38.294 66.8145 38.5646 67.1344 38.5646Z" fill="white"/>
<path d="M50.4479 37.6702H35.9863V38.2505H50.4479V37.6702Z" fill="white"/>
<path d="M35.9865 38.5646C36.3064 38.5646 36.5657 38.294 36.5657 37.9602C36.5657 37.6264 36.3064 37.3558 35.9865 37.3558C35.6666 37.3558 35.4072 37.6264 35.4072 37.9602C35.4072 38.294 35.6666 38.5646 35.9865 38.5646Z" fill="white"/>
<path d="M77.7025 65.2919H74.9214V62.39H77.7025V65.2919ZM75.4776 64.7115H77.1462V62.9704H75.4776V64.7115Z" fill="white"/>
<path d="M76.5899 65.07H76.0337V80.1598H76.5899V65.07Z" fill="white"/>
<path d="M76.3116 80.7642C76.6315 80.7642 76.8909 80.4936 76.8909 80.1598C76.8909 79.826 76.6315 79.5554 76.3116 79.5554C75.9917 79.5554 75.7324 79.826 75.7324 80.1598C75.7324 80.4936 75.9917 80.7642 76.3116 80.7642Z" fill="white"/>
<path d="M76.5899 47.6588H76.0337V62.7486H76.5899V47.6588Z" fill="white"/>
<path d="M76.3116 48.2631C76.6315 48.2631 76.8909 47.9925 76.8909 47.6587C76.8909 47.3249 76.6315 47.0543 76.3116 47.0543C75.9917 47.0543 75.7324 47.3249 75.7324 47.6587C75.7324 47.9925 75.9917 48.2631 76.3116 48.2631Z" fill="white"/>
<path d="M27.9212 65.2919H25.1401V62.39H27.9212V65.2919ZM25.6964 64.7115H27.365V62.9704H25.6964V64.7115Z" fill="white"/>
<path d="M26.8089 65.07H26.2527V80.1598H26.8089V65.07Z" fill="white"/>
<path d="M26.5306 80.7642C26.8505 80.7642 27.1099 80.4936 27.1099 80.1598C27.1099 79.826 26.8505 79.5554 26.5306 79.5554C26.2107 79.5554 25.9514 79.826 25.9514 80.1598C25.9514 80.4936 26.2107 80.7642 26.5306 80.7642Z" fill="white"/>
<path d="M26.8089 47.0782H26.2527V62.7484H26.8089V47.0782Z" fill="white"/>
<path d="M26.5306 48.2631C26.8505 48.2631 27.1099 47.9925 27.1099 47.6587C27.1099 47.3249 26.8505 47.0543 26.5306 47.0543C26.2107 47.0543 25.9514 47.3249 25.9514 47.6587C25.9514 47.9925 26.2107 48.2631 26.5306 48.2631Z" fill="white"/>
<path d="M52.8853 91.3549H50.1042V88.453H52.8853V91.3549ZM50.6605 90.7745H52.3291V89.0334H50.6605V90.7745Z" fill="white"/>
<path d="M67.4125 89.6139H52.6729V90.1943H67.4125V89.6139Z" fill="white"/>
<path d="M67.1344 90.5083C67.4543 90.5083 67.7136 90.2377 67.7136 89.9039C67.7136 89.5702 67.4543 89.2996 67.1344 89.2996C66.8145 89.2996 66.5552 89.5702 66.5552 89.9039C66.5552 90.2377 66.8145 90.5083 67.1344 90.5083Z" fill="white"/>
<path d="M50.4479 89.6139H35.9863V90.1943H50.4479V89.6139Z" fill="white"/>
<path d="M35.9865 90.5083C36.3064 90.5083 36.5657 90.2377 36.5657 89.9039C36.5657 89.5702 36.3064 89.2996 35.9865 89.2996C35.6666 89.2996 35.4072 89.5702 35.4072 89.9039C35.4072 90.2377 35.6666 90.5083 35.9865 90.5083Z" fill="white"/>
<path d="M65.3181 103.208H54.5362C53.8004 98.77 53.8004 94.2329 54.5362 89.7946H65.3181C64.1034 94.176 64.1034 98.8269 65.3181 103.208Z" fill="#E6E6E6"/>
<path d="M190.195 123.852H6.08838V9.22803H190.195V123.852ZM6.64459 123.272H189.639V9.8084H6.64459V123.272Z" fill="#E6E6E6"/>
<path d="M160.969 140.002C160.936 139.945 160.148 138.573 159.875 135.724C159.625 133.11 159.786 128.704 161.976 122.559C166.124 110.916 161.02 101.521 160.967 101.428L161.219 101.275C162.202 103.238 162.912 105.337 163.328 107.508C164.356 112.565 163.982 117.822 162.249 122.664C158.107 134.287 161.186 139.79 161.218 139.844L160.969 140.002Z" fill="#E6E6E6"/>
<path d="M159.347 100.744C160.392 100.744 161.239 99.8606 161.239 98.7703C161.239 97.68 160.392 96.7961 159.347 96.7961C158.302 96.7961 157.455 97.68 157.455 98.7703C157.455 99.8606 158.302 100.744 159.347 100.744Z" fill="#3F3D56"/>
<path d="M165.314 108.033C166.359 108.033 167.206 107.149 167.206 106.059C167.206 104.969 166.359 104.085 165.314 104.085C164.269 104.085 163.422 104.969 163.422 106.059C163.422 107.149 164.269 108.033 165.314 108.033Z" fill="#3F3D56"/>
<path d="M161.239 112.893C162.284 112.893 163.131 112.009 163.131 110.919C163.131 109.828 162.284 108.945 161.239 108.945C160.194 108.945 159.347 109.828 159.347 110.919C159.347 112.009 160.194 112.893 161.239 112.893Z" fill="#E6E6E6"/>
<path d="M166.187 116.993C167.232 116.993 168.079 116.109 168.079 115.019C168.079 113.929 167.232 113.045 166.187 113.045C165.142 113.045 164.295 113.929 164.295 115.019C164.295 116.109 165.142 116.993 166.187 116.993Z" fill="#E6E6E6"/>
<path d="M159.784 123.371C160.828 123.371 161.675 122.487 161.675 121.397C161.675 120.306 160.828 119.423 159.784 119.423C158.739 119.423 157.892 120.306 157.892 121.397C157.892 122.487 158.739 123.371 159.784 123.371Z" fill="#3F3D56"/>
<path d="M162.112 140.075C162.112 140.075 160.22 135.216 165.896 131.571L162.112 140.075Z" fill="#E6E6E6"/>
<path d="M159.785 139.987C159.785 139.987 158.924 134.819 152.26 134.864L159.785 139.987Z" fill="#E6E6E6"/>
<path d="M172.858 147C198.604 147 219.475 144.807 219.475 142.101C219.475 139.396 198.604 137.202 172.858 137.202C147.112 137.202 126.24 139.396 126.24 142.101C126.24 144.807 147.112 147 172.858 147Z" fill="#3F3D56"/>
<path d="M180.914 52.8191L178.39 62.6034C178.39 62.6034 177.127 70.5061 179.291 70.6942C181.455 70.8824 180.914 62.7915 180.914 62.7915L185.062 56.0178L180.914 52.8191Z" fill="#FBBEBE"/>
<path d="M199.668 57.9354V54.87L182.54 53.6656L179.832 71.7295C179.832 71.7295 179.472 89.7384 180.734 98.9345C181.996 108.131 184.521 129.588 184.521 129.588H196.062L193.176 84.9488L206.16 129.588L219.684 127.864L203.996 75.178C203.996 75.178 204.176 65.4072 199.668 57.9354Z" fill="#2F2E41"/>
<path d="M185.964 127.518L185.242 133.351L184.16 137.491C184.16 137.491 179.111 138.62 182.177 140.501C185.242 142.383 188.127 140.501 188.127 140.501L190.472 137.115V142.948H194.078V134.669L191.373 128.459L185.964 127.518Z" fill="#2F2E41"/>
<path d="M208.324 127.518L207.603 133.351L206.521 137.491C206.521 137.491 201.471 138.62 204.537 140.501C207.603 142.383 210.488 140.501 210.488 140.501L212.832 137.115V142.948H216.439V134.669L213.734 128.459L208.324 127.518Z" fill="#2F2E41"/>
<path d="M192.545 22.2431C195.931 22.2431 198.676 19.3789 198.676 15.8457C198.676 12.3125 195.931 9.44824 192.545 9.44824C189.159 9.44824 186.414 12.3125 186.414 15.8457C186.414 19.3789 189.159 22.2431 192.545 22.2431Z" fill="#FBBEBE"/>
<path d="M196.603 18.5742L201.652 24.9714L195.521 27.4177L192.635 21.3965L196.603 18.5742Z" fill="#FBBEBE"/>
<path d="M193.537 25.3476L194.409 25.0975C194.409 25.0975 198.947 22.1489 200.209 22.3371C201.472 22.5252 205.439 26.6647 204.717 32.3095C203.996 37.9543 205.439 59.0282 202.554 58.2755C199.668 57.5229 198.767 56.9584 198.767 56.9584L195.341 55.265L192.095 56.2058C192.095 56.2058 190.111 54.8887 188.488 55.265C186.865 55.6413 181.636 53.7597 181.636 53.7597L193.537 25.3476Z" fill="#E6E6E6"/>
<path d="M194.818 25.951C194.818 25.951 190.742 23.9365 188.939 26.9471C187.136 29.9576 182.087 45.9512 182.087 45.9512L179.742 53.2894L185.513 56.8645L196.873 35.0379C196.873 35.0379 198.534 28.53 194.818 25.951Z" fill="#E6E6E6"/>
<path d="M191.905 16.8433C191.52 16.2244 191.714 15.3828 191.444 14.7008C191.02 13.6297 189.701 13.3788 188.594 13.2811C187.861 13.1829 187.119 13.185 186.386 13.2873C186.062 13.3434 185.755 13.4773 185.489 13.6784C185.224 13.8795 185.006 14.1422 184.854 14.4459C184.691 14.7886 184.732 13.7149 184.837 12.3367C184.943 10.9303 185.474 9.59534 186.354 8.52424C187.234 7.45314 188.417 6.70118 189.733 6.37671C189.749 6.37287 189.764 6.36911 189.78 6.36542C191.127 6.04105 192.517 5.80235 193.89 5.97071C195.264 6.13907 196.633 6.75772 197.49 7.89009C197.882 8.40764 198.159 9.01794 198.596 9.4941C199.364 10.3307 200.503 10.6351 201.55 11.0233C202.749 11.4269 203.853 12.0915 204.789 12.9731C205.727 13.8678 206.289 15.1124 206.354 16.437C206.376 17.9654 205.444 19.5429 203.943 19.8442C203.682 19.8917 203.435 20.0028 203.223 20.1684C201.789 21.3284 203.425 22.5426 203.413 23.8484C203.404 24.938 202.241 25.6482 201.198 25.699C200.223 25.7173 199.272 25.3811 198.508 24.748C197.745 24.1149 197.216 23.2243 197.012 22.2289C196.855 21.3347 196.976 20.4163 197.079 19.5135C197.196 18.48 195.063 16.0465 196.472 17.8302C196.747 18.1692 196.932 18.5771 197.01 19.0137C197.245 20.4386 196.002 20.9179 195.219 21.7075C194.788 22.1541 194.487 22.7176 194.348 23.3341C194.209 23.9505 194.238 24.5953 194.432 25.1952C193.786 24.5843 193.365 23.7572 193.24 22.8566C193.116 21.956 193.297 21.0385 193.752 20.2622C194.005 19.8583 194.33 19.5068 194.569 19.0943C194.943 18.4505 195.046 17.0504 194 17.0888C193.254 17.1163 192.479 17.7646 191.905 16.8433Z" fill="#2F2E41"/>
<path opacity="0.2" d="M194.709 41.4353L186.414 55.1322L194.265 40.0485L194.709 41.4353Z" fill="black"/>
<path d="M140.55 127.622H126.92V141.844H140.55V127.622Z" fill="#4662DB"/>
<path d="M142.859 135.747H136.057V142.844H142.859V135.747Z" fill="#E6E6E6"/>
</svg>
